<svg width="40" height="40" viewBox="0 0 40 40" fill="none" xmlns="http://www.w3.org/2000/svg">
<circle cx="20" cy="20" r="20" fill="#F4F6F6"/>
<path d="M15.2558 20.6243L22.376 27.7444C22.5406 27.9092 22.7605 28 22.9949 28C23.2293 28 23.4491 27.9092 23.6138 27.7444L24.1381 27.2202C24.4793 26.8786 24.4793 26.3234 24.1381 25.9823L18.1591 20.0033L24.1448 14.0177C24.3095 13.8529 24.4004 13.6332 24.4004 13.3989C24.4004 13.1643 24.3095 12.9446 24.1448 12.7797L23.6204 12.2556C23.4556 12.0908 23.2359 12 23.0015 12C22.7671 12 22.5473 12.0908 22.3826 12.2556L15.2558 19.3822C15.0907 19.5475 15 19.7683 15.0005 20.0029C15 20.2385 15.0907 20.4591 15.2558 20.6243Z" fill="#666666"/>
</svg>
