<svg width="50" height="51" viewBox="0 0 50 51" fill="none" xmlns="http://www.w3.org/2000/svg">
<g clip-path="url(#clip0_14_9)">
<path d="M46.239 14.0813L46.2374 14.0424C46.2157 13.5621 46.2012 13.054 46.1924 12.4887C46.1516 9.73181 43.9601 7.45139 41.2028 7.29728C35.4541 6.97646 31.0069 5.10193 27.2071 1.39825L27.1747 1.36735C25.9353 0.230954 24.0657 0.230954 22.8259 1.36735L22.7935 1.39825C18.9937 5.10193 14.5465 6.97646 8.7978 7.29766C6.04093 7.45139 3.84901 9.73181 3.80819 12.4891C3.7998 13.0506 3.78492 13.5587 3.76318 14.0424L3.76089 14.1328C3.64912 19.9948 3.51027 27.2904 5.9509 33.9123C7.29291 37.5538 9.32538 40.7193 11.9915 43.3213C15.028 46.2845 19.0051 48.637 23.8124 50.3132C23.9688 50.3678 24.1313 50.412 24.2969 50.4452C24.5303 50.4917 24.7653 50.515 25.0003 50.515C25.2353 50.515 25.4707 50.4917 25.7037 50.4452C25.8693 50.412 26.0329 50.3674 26.1901 50.3125C30.9916 48.6332 34.9646 46.2796 37.9985 43.3167C40.6634 40.7139 42.6959 37.5477 44.039 33.9055C46.4888 27.2637 46.3503 19.9544 46.239 14.0813ZM41.2863 32.8904C38.7122 39.8697 33.4575 44.6629 25.2219 47.543C25.1926 47.5529 25.1613 47.5617 25.1289 47.5682C25.0438 47.5849 24.9572 47.5849 24.871 47.5678C24.8389 47.5613 24.8077 47.5529 24.7787 47.543C16.5344 44.6682 11.2762 39.8778 8.70396 32.898C6.45444 26.7941 6.58185 20.0971 6.69439 14.1889L6.69515 14.1561C6.71804 13.6484 6.7333 13.1166 6.74169 12.5322C6.76 11.308 7.73503 10.2952 8.96145 10.227C12.2146 10.0454 15.0726 9.41672 17.6986 8.30512C20.3212 7.19505 22.6505 5.63026 24.8187 3.5215C24.929 3.42842 25.072 3.42804 25.1819 3.5215C27.3505 5.63026 29.6798 7.19505 32.302 8.30512C34.928 9.41672 37.786 10.0454 41.0395 10.227C42.266 10.2952 43.241 11.308 43.2589 12.5326C43.2677 13.12 43.283 13.6518 43.3058 14.1561C43.418 20.0711 43.5424 26.7735 41.2863 32.8904Z" fill="#076BAC"/>
<path d="M24.9998 13.0552C18.1287 13.0552 12.5391 18.6453 12.5391 25.5159C12.5391 32.3869 18.1287 37.977 24.9998 37.977C31.8704 37.977 37.4605 32.3869 37.4605 25.5159C37.4605 18.6453 31.8704 13.0552 24.9998 13.0552ZM24.9998 35.0427C19.7466 35.0427 15.4729 30.7691 15.4729 25.5159C15.4729 20.2627 19.7466 15.9891 24.9998 15.9891C30.2526 15.9891 34.5262 20.2627 34.5262 25.5159C34.5262 30.7691 30.2526 35.0427 24.9998 35.0427Z" fill="#076BAC"/>
<path d="M28.5806 21.6474L22.7929 27.4351L21.222 25.8642C20.6491 25.2912 19.7202 25.2912 19.1472 25.8642C18.5746 26.4372 18.5746 27.366 19.1472 27.9386L21.7557 30.5471C22.0422 30.8336 22.4176 30.9767 22.7929 30.9767C23.1683 30.9767 23.5437 30.8336 23.8301 30.5471L30.6554 23.7219C31.228 23.1489 31.228 22.22 30.6554 21.6474C30.0824 21.0741 29.1535 21.0741 28.5806 21.6474Z" fill="#076BAC"/>
</g>
<defs>
<clipPath id="clip0_14_9">
<rect width="50" height="50" fill="white" transform="translate(0 0.515137)"/>
</clipPath>
</defs>
</svg>
