<svg width="75" height="86" viewBox="0 0 75 86" fill="none" xmlns="http://www.w3.org/2000/svg">
<path d="M74.4558 23.334L74.4531 23.267C74.4153 22.441 74.3901 21.567 74.3748 20.5946C74.3038 15.8528 70.4905 11.9305 65.6929 11.6654C55.6901 11.1136 47.952 7.88942 41.3404 1.5191L41.2839 1.46595C39.1274 -0.48865 35.8743 -0.48865 33.7171 1.46595L33.6607 1.5191C27.049 7.88942 19.311 11.1136 9.30818 11.6661C4.51122 11.9305 0.69728 15.8528 0.626258 20.5953C0.611655 21.5611 0.585769 22.4351 0.547935 23.267L0.543952 23.4226C0.349472 33.5052 0.107865 46.0537 4.35457 57.4433C6.68967 63.7067 10.2262 69.1513 14.8651 73.6267C20.1486 78.7235 27.069 82.7698 35.4336 85.6528C35.7057 85.7467 35.9885 85.8228 36.2766 85.8799C36.6828 85.9599 37.0917 85.9999 37.5005 85.9999C37.9094 85.9999 38.3189 85.9599 38.7245 85.8799C39.0126 85.8228 39.2973 85.746 39.5708 85.6515C47.9255 82.7633 54.8385 78.715 60.1173 73.6188C64.7543 69.1421 68.2908 63.6962 70.6279 57.4315C74.8905 46.0077 74.6496 33.4357 74.4558 23.334ZM65.8382 55.6856C61.3592 67.6901 52.216 75.9343 37.8862 80.888C37.8351 80.9051 37.7806 80.9202 37.7242 80.9313C37.5762 80.9602 37.4255 80.9602 37.2755 80.9307C37.2198 80.9195 37.1653 80.9051 37.1149 80.888C22.7698 75.9435 13.6206 67.7038 9.1449 55.6987C5.23073 45.2 5.45243 33.6811 5.64823 23.519L5.64956 23.4626C5.68939 22.5893 5.71594 21.6746 5.73054 20.6694C5.7624 18.5639 7.45896 16.8219 9.59293 16.7045C15.2534 16.3922 20.2263 15.3109 24.7956 13.3989C29.3589 11.4896 33.4118 8.79816 37.1846 5.17109C37.3764 5.011 37.6253 5.01034 37.8165 5.17109C41.5899 8.79816 45.6428 11.4896 50.2055 13.3989C54.7748 15.3109 59.7476 16.3922 65.4088 16.7045C67.5428 16.8219 69.2393 18.5639 69.2705 20.6701C69.2858 21.6805 69.3123 22.5952 69.3522 23.4626C69.5473 33.6365 69.7637 45.1646 65.8382 55.6856Z" fill="#808080"/>
<path d="M37.499 21.5688C25.5434 21.5688 15.8174 31.1837 15.8174 43.0013C15.8174 54.8195 25.5434 64.4343 37.499 64.4343C49.4539 64.4343 59.1806 54.8195 59.1806 43.0013C59.1806 31.1837 49.4539 21.5688 37.499 21.5688ZM37.499 59.3874C28.3584 59.3874 20.9223 52.0368 20.9223 43.0013C20.9223 33.9657 28.3584 26.6151 37.499 26.6151C46.6389 26.6151 54.075 33.9657 54.075 43.0013C54.075 52.0368 46.6389 59.3874 37.499 59.3874Z" fill="#808080"/>
<path d="M43.7306 36.3475L33.6601 46.3023L30.9267 43.6004C29.9298 42.6149 28.3135 42.6149 27.3166 43.6004C26.3203 44.5859 26.3203 46.1835 27.3166 47.1684L31.8553 51.655C32.3538 52.1477 33.007 52.3938 33.6601 52.3938C34.3132 52.3938 34.9664 52.1477 35.4648 51.655L47.3408 39.9156C48.3371 38.93 48.3371 37.3324 47.3408 36.3475C46.3438 35.3614 44.7276 35.3614 43.7306 36.3475Z" fill="#808080"/>
</svg>
