<svg width="50" height="50" viewBox="0 0 50 50" fill="none" xmlns="http://www.w3.org/2000/svg">
<g clip-path="url(#clip0_16_42)">
<path d="M47.3217 17.7176C46.6619 15.6747 46.9432 12.608 45.2283 10.2401C43.5 7.85359 40.494 7.17527 38.7967 5.93386C37.1172 4.70554 35.5547 2.03259 32.7296 1.11071C29.9842 0.214815 27.1768 1.43054 25 1.43054C22.8235 1.43054 20.0163 0.214522 17.2704 1.11062C14.4458 2.0323 12.882 4.70583 11.2036 5.93357C9.50811 7.17351 6.4999 7.85368 4.77187 10.2398C3.0585 12.6057 3.33691 15.6795 2.67832 17.7176C2.05156 19.6573 0 21.9853 0 25.0002C0 28.0169 2.04922 30.3359 2.67832 32.2827C3.33809 34.3257 3.05684 37.3924 4.77168 39.7602C6.4999 42.1469 9.50576 42.8251 11.2033 44.0666C12.8825 45.2947 14.4453 47.9678 17.2704 48.8896C20.014 49.7849 22.8258 48.5698 25 48.5698C27.1712 48.5698 29.9896 49.7837 32.7296 48.8897C35.5543 47.968 37.1171 45.2951 38.7964 44.0668C40.4919 42.8268 43.5001 42.1467 45.2281 39.7605C46.9416 37.3945 46.663 34.3211 47.3217 32.2828C47.9484 30.3429 50 28.0149 50 25.0002C50 21.9837 47.9513 19.6653 47.3217 17.7176ZM43.6048 31.0816C42.8357 33.462 43.0372 36.1259 42.0646 37.4691C41.0788 38.8302 38.4891 39.4518 36.4907 40.9135C34.5143 42.359 33.129 44.6503 31.5179 45.1759C29.9937 45.6734 27.5097 44.6634 25.0001 44.6634C22.4722 44.6634 20.0138 45.6756 18.4822 45.1759C16.8713 44.6503 15.488 42.3605 13.5094 40.9135C11.5229 39.4606 8.91836 38.8261 7.93545 37.4689C6.96592 36.1302 7.15977 33.4478 6.39541 31.0817C5.64619 28.7635 3.90625 26.7561 3.90625 25.0002C3.90625 23.2425 5.64463 21.2421 6.39522 18.9187C7.16426 16.5384 6.96279 13.8743 7.93545 12.5312C8.92061 11.1711 11.5123 10.5473 13.5094 9.08679C15.4921 7.63669 16.8687 5.35085 18.482 4.82439C20.005 4.32751 22.4971 5.33698 24.9999 5.33698C27.5324 5.33698 29.9847 4.32409 31.5178 4.82439C33.1285 5.34997 34.513 7.6406 36.4907 9.08689C38.477 10.5397 41.0816 11.1742 42.0646 12.5313C43.0343 13.8703 42.8394 16.55 43.6046 18.9185V18.9186C44.3538 21.2369 46.0938 23.2442 46.0938 25.0002C46.0938 26.7579 44.3554 28.7583 43.6048 31.0816ZM33.9983 18.7311C34.7611 19.4939 34.7611 20.7305 33.9983 21.4932L24.2224 31.2692C23.4596 32.032 22.2229 32.0319 21.4602 31.2692L16.0018 25.8108C15.239 25.048 15.2389 23.8114 16.0017 23.0487C16.7645 22.286 18.0013 22.2859 18.7638 23.0487L22.8412 27.126L31.236 18.7312C31.9988 17.9684 33.2355 17.9684 33.9983 18.7311Z" fill="#076BAC"/>
</g>
<defs>
<clipPath id="clip0_16_42">
<rect width="50" height="50" fill="white"/>
</clipPath>
</defs>
</svg>
