<svg width="50" height="50" viewBox="0 0 50 50" fill="none" xmlns="http://www.w3.org/2000/svg">
<g clip-path="url(#clip0_3203_2267)">
<path d="M9.14062 23.189H21.7454C22.8536 23.189 23.8654 23.608 24.632 24.2951C25.3987 23.6079 26.4105 23.189 27.5186 23.189H40.1235V7.71059C40.1235 6.91726 39.4887 6.25709 38.6954 6.2543C38.6834 6.2543 39.1878 6.2543 10.5839 6.2543C9.76259 6.2543 9.14062 6.92765 9.14062 7.71059V23.189Z" fill="#076BAC"/>
<path d="M26.0752 27.5189V30.8866H40.1233C40.1233 28.7547 40.1233 28.3169 40.1233 26.0756H27.5185C26.7227 26.0756 26.0752 26.7231 26.0752 27.5189Z" fill="#076BAC"/>
<path d="M44.5992 16.2634C43.7096 16.2911 43.0103 17.0374 43.0103 17.9274C43.0103 18.1559 43.0103 33.1497 43.0103 32.3299C43.0103 33.127 42.3641 33.7732 41.567 33.7732C40.4132 33.7732 6.60194 33.7732 7.6976 33.7732C6.90051 33.7732 6.2543 33.127 6.2543 32.3299C6.2543 31.7975 6.2543 17.7886 6.2543 17.9274C6.2543 17.0374 5.55507 16.2911 4.66542 16.2634C2.10116 16.1835 0 18.235 0 20.7835V35.6014C0 37.9928 1.93854 39.9313 4.3299 39.9313H6.2543V41.5263C6.2543 42.3034 6.85154 42.9722 7.62784 43.0087C8.45668 43.0478 9.1409 42.3873 9.1409 41.5671V39.9313H40.1237V41.5263C40.1237 42.3034 40.721 42.9722 41.4973 43.0087C42.3261 43.0478 43.0103 42.3873 43.0103 41.5671V39.9313H44.9347C47.3261 39.9313 49.2646 37.9928 49.2646 35.6014V20.8648C49.2646 18.2004 47.147 16.184 44.5992 16.2634Z" fill="#076BAC"/>
<path d="M23.1887 27.5189C23.1887 26.7231 22.5413 26.0756 21.7454 26.0756H9.14062V30.8866H23.1887V27.5189Z" fill="#076BAC"/>
</g>
<defs>
<clipPath id="clip0_3203_2267">
<rect width="49.2646" height="49.2646" fill="white"/>
</clipPath>
</defs>
</svg>
