<svg width="25" height="25" viewBox="0 0 25 25" fill="none" xmlns="http://www.w3.org/2000/svg">
<g clip-path="url(#clip0_6_43)">
<path d="M10.9158 0.787354C5.08813 0.787354 0.34668 5.5322 0.34668 11.364C0.34668 17.1961 5.08813 21.9407 10.9158 21.9407C16.7437 21.9407 21.4849 17.1961 21.4849 11.364C21.4849 5.5322 16.7437 0.787354 10.9158 0.787354ZM10.9158 19.9881C6.16391 19.9881 2.2979 16.1193 2.2979 11.3641C2.2979 6.6088 6.16391 2.73997 10.9158 2.73997C15.6676 2.73997 19.5336 6.60875 19.5336 11.364C19.5336 16.1193 15.6676 19.9881 10.9158 19.9881Z" fill="#244D4D"/>
<path d="M24.0607 23.138L18.4671 17.5405C18.086 17.159 17.4688 17.159 17.0876 17.5405C16.7065 17.9215 16.7065 18.5399 17.0876 18.921L22.6811 24.5185C22.8717 24.7092 23.1211 24.8045 23.3709 24.8045C23.6203 24.8045 23.8701 24.7092 24.0607 24.5185C24.4418 24.1374 24.4418 23.5191 24.0607 23.138Z" fill="#244D4D"/>
</g>
<defs>
<clipPath id="clip0_6_43">
<rect width="24" height="24.0333" fill="white" transform="translate(0.34668 0.769531)"/>
</clipPath>
</defs>
</svg>
