<svg width="41" height="40" viewBox="0 0 41 40" fill="none" xmlns="http://www.w3.org/2000/svg">
<circle cx="20.3262" cy="20" r="20" fill="#F4F6F6"/>
<path d="M24.7716 19.3757L17.6514 12.2556C17.4867 12.0908 17.2669 12 17.0325 12C16.7981 12 16.5782 12.0908 16.4135 12.2556L15.8892 12.7798C15.548 13.1214 15.548 13.6766 15.8892 14.0177L21.8682 19.9967L15.8826 25.9823C15.7179 26.1471 15.627 26.3668 15.627 26.6011C15.627 26.8357 15.7179 27.0554 15.8826 27.2203L16.4069 27.7444C16.5717 27.9092 16.7914 28 17.0258 28C17.2602 28 17.4801 27.9092 17.6448 27.7444L24.7716 20.6178C24.9367 20.4525 25.0273 20.2317 25.0268 19.9971C25.0273 19.7615 24.9367 19.5409 24.7716 19.3757Z" fill="#666666"/>
</svg>
