<svg width="20" height="21" viewBox="0 0 20 21" fill="none" xmlns="http://www.w3.org/2000/svg">
<g clip-path="url(#clip0_57_378)">
<path d="M10 20.459C15.5228 20.459 20 15.9818 20 10.459C20 4.93614 15.5228 0.458984 10 0.458984C4.47715 0.458984 0 4.93614 0 10.459C0 15.9818 4.47715 20.459 10 20.459Z" fill="white"/>
<path d="M12.5139 10.8505H10.7295V17.3876H8.02602V10.8505H6.74023V8.55309H8.02602V7.06641C8.02602 6.00327 8.53103 4.3385 10.7536 4.3385L12.7561 4.34688V6.5769H11.3031C11.0648 6.5769 10.7297 6.69598 10.7297 7.20313V8.55523H12.7501L12.5139 10.8505Z" fill="#81B3D6"/>
</g>
<defs>
<clipPath id="clip0_57_378">
<rect width="20" height="20" fill="white" transform="translate(0 0.458984)"/>
</clipPath>
</defs>
</svg>
